<svg width="1440" height="156" viewBox="0 0 1440 156" fill="none" xmlns="http://www.w3.org/2000/svg">
<rect width="1440" height="156" fill="#5CA5A5"/>
<mask id="mask0_0_851" style="mask-type:luminance" maskUnits="userSpaceOnUse" x="0" y="0" width="1440" height="156">
<rect width="1440" height="156" fill="white"/>
</mask>
<g mask="url(#mask0_0_851)">
<path fill-rule="evenodd" clip-rule="evenodd" d="M888.138 563.441C942.358 614.867 1030.26 614.867 1084.48 563.441L1502.62 166.838C1556.86 115.402 1556.86 31.9987 1502.62 -19.4379C1448.4 -70.8642 1360.5 -70.8643 1306.28 -19.4379L1118.46 158.71C1164.66 106.96 1162.03 29.3701 1110.57 -19.4379C1056.35 -70.8642 968.45 -70.8643 914.23 -19.4379L496.084 377.165C441.853 428.602 441.853 512.004 496.084 563.441C550.303 614.867 638.203 614.867 692.423 563.441L880.248 385.293C834.049 437.043 836.679 514.633 888.138 563.441Z" fill="#63BABA"/>
<path fill-rule="evenodd" clip-rule="evenodd" d="M-107.957 117.441C-53.7373 168.868 34.1624 168.868 88.3823 117.441L506.529 -279.162C560.76 -330.598 560.76 -414.001 506.529 -465.438C452.309 -516.864 364.409 -516.864 310.189 -465.438L-107.957 -68.835C-162.188 -17.3984 -162.188 66.0045 -107.957 117.441ZM360.825 45.617C415.045 97.0433 502.944 97.0433 557.164 45.617L975.311 -350.986C1029.54 -402.422 1029.54 -485.825 975.311 -537.262C921.091 -588.688 833.191 -588.688 778.972 -537.262L360.825 -140.659C306.594 -89.2226 306.594 -5.81964 360.825 45.617Z" fill="#63BABA"/>
</g>
</svg>
